# xmcd
#
# Track frame offsets:
#	150
#	18639
#	30006
#	43902
#	65005
#	81039
#	97782
#	109644
#	123593
#	145675
#	162822
#
# Disc length: 2497 seconds
#
# Revision: 1
# Processed by: cddbd v1.5.2PL0 Copyright (c) Steve Scherf et al.
# Submitted via: audiograbber 1.83.01
#
DISCID=8209bf0b
DTITLE=Frano Zivkovic - reason to smile
DYEAR=2019
DGENRE=Blues
TTITLE0=i know why
TTITLE1=music highway
TTITLE2=reason to smile
TTITLE3=dare to dream
TTITLE4=waterfall
TTITLE5=the lone dragon
TTITLE6=sunset is her favourite colour
TTITLE7=the man with no name
TTITLE8=light
TTITLE9=uncle chester
TTITLE10=light with tambura orchestra
EXTD=
EXTT0=
EXTT1=
EXTT2=
EXTT3=
EXTT4=
EXTT5=
EXTT6=
EXTT7=
EXTT8=
EXTT9=
EXTT10=
PLAYORDER=
